<svg width="124" height="35" viewBox="0 0 124 35" fill="none" xmlns="http://www.w3.org/2000/svg">
<g opacity="0.6">
<path opacity="0.6" d="M56.5391 22.8887C56.7316 22.8887 56.8978 22.9635 57.0378 23.1127L58.4292 24.628C57.6591 25.5854 56.7097 26.3188 55.5809 26.8283C54.4609 27.3377 53.1134 27.5925 51.5383 27.5925C50.1295 27.5925 48.8607 27.3509 47.732 26.8678C46.6119 26.3847 45.6538 25.7127 44.8574 24.8519C44.0612 23.9911 43.4486 22.9635 43.0199 21.7688C42.5999 20.5742 42.3899 19.2699 42.3899 17.8557C42.3899 16.4239 42.6261 15.1151 43.0986 13.9293C43.5711 12.7347 44.2362 11.7071 45.0937 10.8463C45.9513 9.98547 46.975 9.31786 48.1651 8.84353C49.3639 8.36044 50.6852 8.1189 52.1289 8.1189C53.5377 8.1189 54.7671 8.34725 55.8171 8.80404C56.8759 9.25198 57.7816 9.84929 58.5341 10.5959L57.3529 12.2429C57.2828 12.3482 57.1909 12.4405 57.0772 12.5196C56.9722 12.5986 56.8235 12.6381 56.6309 12.6381C56.4297 12.6381 56.224 12.5591 56.0141 12.401C55.8041 12.2429 55.5372 12.0715 55.2134 11.8871C54.8897 11.7027 54.4784 11.5313 53.9796 11.3733C53.4896 11.2152 52.8639 11.1361 52.1027 11.1361C51.2102 11.1361 50.3876 11.2942 49.6351 11.6104C48.8913 11.9178 48.2482 12.3614 47.7057 12.9412C47.1719 13.5209 46.7519 14.228 46.4457 15.0624C46.1481 15.8881 45.9993 16.8192 45.9993 17.8557C45.9993 18.9273 46.1481 19.8803 46.4457 20.7148C46.7519 21.5493 47.1631 22.2519 47.6794 22.8229C48.1957 23.3939 48.8038 23.833 49.5038 24.1405C50.2038 24.4391 50.9564 24.5884 51.7614 24.5884C52.2427 24.5884 52.6758 24.5621 53.0608 24.5093C53.4546 24.4566 53.8134 24.3732 54.1371 24.259C54.4696 24.1448 54.7803 23.9999 55.0691 23.8243C55.3665 23.6398 55.6597 23.4158 55.9485 23.1523C56.036 23.0733 56.1278 23.0117 56.224 22.9678C56.3203 22.9151 56.4253 22.8887 56.5391 22.8887Z" fill="#30424F"/>
<path opacity="0.6" d="M70.9481 27.3815H69.4912C69.1849 27.3815 68.9443 27.3376 68.7693 27.2498C68.5943 27.1532 68.4631 26.9643 68.3756 26.6832L68.0868 25.7214C67.7455 26.0289 67.4087 26.3011 67.0761 26.5383C66.7523 26.7667 66.4155 26.9599 66.0655 27.118C65.7155 27.2762 65.3436 27.3947 64.9498 27.4738C64.556 27.5528 64.1185 27.5924 63.6373 27.5924C63.0685 27.5924 62.5435 27.5177 62.0622 27.3683C61.5809 27.2103 61.1653 26.9775 60.8153 26.67C60.474 26.3626 60.2071 25.9805 60.0147 25.5237C59.8221 25.067 59.7259 24.5356 59.7259 23.9295C59.7259 23.42 59.8571 22.9194 60.1196 22.4275C60.391 21.9269 60.8372 21.4788 61.4584 21.0836C62.0797 20.6796 62.9067 20.3457 63.9392 20.0822C64.9717 19.8187 66.2536 19.6694 67.7849 19.6343V18.8437C67.7849 17.939 67.5924 17.2715 67.2074 16.841C66.8311 16.4019 66.2798 16.1823 65.5536 16.1823C65.0285 16.1823 64.591 16.2437 64.241 16.3667C63.891 16.4897 63.5848 16.6302 63.3223 16.7884C63.0685 16.9376 62.8322 17.0738 62.6135 17.1968C62.3947 17.3197 62.1541 17.3812 61.8916 17.3812C61.6728 17.3812 61.4847 17.3241 61.3272 17.2099C61.1697 17.0958 61.0428 16.9553 60.9466 16.7884L60.3559 15.7475C61.9047 14.3245 63.7729 13.613 65.9604 13.613C66.748 13.613 67.448 13.7448 68.0605 14.0083C68.6818 14.263 69.2068 14.6231 69.6356 15.0887C70.0643 15.5454 70.3881 16.0944 70.6068 16.7356C70.8344 17.3768 70.9481 18.0796 70.9481 18.8437V27.3815ZM64.6479 25.3525C64.9805 25.3525 65.2867 25.3218 65.5667 25.2602C65.8467 25.1988 66.1092 25.1065 66.3543 24.9835C66.608 24.8606 66.8486 24.7113 67.0761 24.5356C67.3123 24.3512 67.5486 24.1359 67.7849 23.89V21.6106C66.8398 21.6545 66.048 21.738 65.4092 21.861C64.7792 21.9751 64.2716 22.1245 63.8866 22.3089C63.5016 22.4934 63.226 22.7086 63.0598 22.9545C62.9023 23.2005 62.8235 23.4684 62.8235 23.7583C62.8235 24.3292 62.9898 24.7377 63.3223 24.9835C63.6635 25.2295 64.1054 25.3525 64.6479 25.3525Z" fill="#30424F"/>
<path opacity="0.6" d="M73.6109 27.3815V13.8633H75.5141C75.8466 13.8633 76.0785 13.9248 76.2098 14.0478C76.341 14.1708 76.4285 14.3816 76.4723 14.6802L76.6692 16.314C77.1504 15.4795 77.7148 14.8208 78.3623 14.3377C79.0099 13.8546 79.7359 13.613 80.5412 13.613C81.2063 13.613 81.7575 13.7667 82.195 14.0742L81.7752 16.5117C81.7487 16.6697 81.6918 16.7839 81.6045 16.8542C81.5172 16.9157 81.3986 16.9464 81.2495 16.9464C81.1189 16.9464 80.9394 16.9157 80.7119 16.8542C80.4843 16.7927 80.1822 16.762 79.8064 16.762C79.1325 16.762 78.5548 16.9508 78.0736 17.3286C77.5923 17.6974 77.1854 18.2421 76.8529 18.9623V27.3815H73.6109Z" fill="#30424F"/>
<path opacity="0.6" d="M93.2784 27.3817C92.8585 27.3817 92.5829 27.1841 92.4515 26.7888L92.1887 25.4844C91.909 25.8006 91.6157 26.086 91.3097 26.3408C91.0028 26.5955 90.6702 26.8151 90.3121 26.9996C89.9619 27.1841 89.5813 27.3246 89.1702 27.4212C88.7672 27.5266 88.3297 27.5793 87.8577 27.5793C87.1222 27.5793 86.4483 27.4256 85.8361 27.1182C85.2239 26.8108 84.6943 26.3672 84.248 25.7875C83.8105 25.1989 83.4691 24.4743 83.2239 23.6135C82.9875 22.7527 82.8698 21.7689 82.8698 20.6621C82.8698 19.6608 83.0052 18.7297 83.2768 17.8689C83.5476 17.0081 83.9371 16.2614 84.4451 15.629C84.9523 14.9966 85.5605 14.5047 86.2696 14.1534C86.9779 13.7932 87.7744 13.6132 88.6582 13.6132C89.4106 13.6132 90.054 13.7362 90.5877 13.9821C91.1213 14.2193 91.5981 14.5399 92.018 14.9439V7.80273H95.26V27.3817H93.2784ZM88.9603 24.9969C89.6334 24.9969 90.2071 24.8564 90.679 24.5752C91.1518 24.2942 91.5981 23.8945 92.018 23.3763V17.3155C91.651 16.8676 91.248 16.5513 90.8105 16.3669C90.3818 16.1824 89.9178 16.0902 89.4194 16.0902C88.929 16.0902 88.4827 16.1824 88.0805 16.3669C87.6871 16.5513 87.3497 16.8324 87.0701 17.2101C86.7984 17.579 86.5885 18.0533 86.4395 18.633C86.2912 19.204 86.2167 19.8803 86.2167 20.6621C86.2167 21.4527 86.2776 22.1246 86.4002 22.678C86.5316 23.2226 86.7151 23.6706 86.9515 24.0219C87.1879 24.3645 87.4771 24.6148 87.8177 24.7729C88.159 24.9222 88.5396 24.9969 88.9603 24.9969Z" fill="#30424F"/>
<path opacity="0.6" d="M103.813 13.6526C104.661 13.6526 105.44 13.7888 106.149 14.061C106.867 14.3333 107.483 14.733 108 15.26C108.516 15.7782 108.919 16.4195 109.207 17.1837C109.496 17.939 109.641 18.8043 109.641 19.7792C109.641 20.0252 109.628 20.2316 109.601 20.3985C109.584 20.5566 109.544 20.684 109.483 20.7806C109.431 20.8685 109.356 20.9343 109.26 20.9783C109.164 21.0134 109.041 21.0309 108.892 21.0309H100.571C100.667 22.4188 101.039 23.4377 101.686 24.0877C102.334 24.7377 103.192 25.0627 104.259 25.0627C104.784 25.0627 105.235 25.0012 105.611 24.8782C105.996 24.7552 106.329 24.6191 106.608 24.4698C106.898 24.3205 107.147 24.1843 107.357 24.0613C107.576 23.9383 107.786 23.8769 107.987 23.8769C108.118 23.8769 108.232 23.9032 108.328 23.956C108.424 24.0086 108.508 24.0833 108.577 24.1799L109.523 25.3657C109.164 25.7874 108.762 26.1431 108.315 26.433C107.869 26.7141 107.4 26.9424 106.911 27.1181C106.429 27.285 105.935 27.4036 105.427 27.4739C104.928 27.5441 104.443 27.5792 103.971 27.5792C103.034 27.5792 102.164 27.4255 101.359 27.1181C100.553 26.8019 99.8537 26.3407 99.2583 25.7346C98.663 25.1198 98.195 24.3644 97.8537 23.4684C97.5123 22.5637 97.3425 21.5185 97.3425 20.3326C97.3425 19.4103 97.4907 18.5451 97.788 17.7371C98.0861 16.9202 98.5099 16.2131 99.0612 15.6158C99.6213 15.0097 100.3 14.5309 101.096 14.1796C101.901 13.8283 102.806 13.6526 103.813 13.6526ZM103.879 15.9847C102.934 15.9847 102.194 16.2526 101.661 16.7884C101.127 17.3242 100.786 18.084 100.637 19.0678H106.727C106.727 18.6461 106.67 18.2509 106.556 17.882C106.443 17.5043 106.267 17.1749 106.031 16.8938C105.795 16.6127 105.497 16.3932 105.139 16.235C104.78 16.0681 104.36 15.9847 103.879 15.9847Z" fill="#30424F"/>
<path opacity="0.6" d="M121.222 27.3817C120.802 27.3817 120.526 27.1841 120.395 26.7888L120.133 25.4844C119.852 25.8006 119.56 26.086 119.253 26.3408C118.947 26.5955 118.614 26.8151 118.256 26.9996C117.906 27.1841 117.525 27.3246 117.113 27.4212C116.711 27.5266 116.274 27.5793 115.801 27.5793C115.066 27.5793 114.392 27.4256 113.78 27.1182C113.167 26.8108 112.638 26.3672 112.192 25.7875C111.754 25.1989 111.413 24.4743 111.168 23.6135C110.931 22.7527 110.814 21.7689 110.814 20.6621C110.814 19.6608 110.949 18.7297 111.221 17.8689C111.492 17.0081 111.881 16.2614 112.388 15.629C112.896 14.9966 113.504 14.5047 114.213 14.1534C114.922 13.7932 115.718 13.6132 116.602 13.6132C117.355 13.6132 117.997 13.7362 118.532 13.9821C119.065 14.2193 119.542 14.5399 119.962 14.9439V7.80273H123.204V27.3817H121.222ZM116.903 24.9969C117.577 24.9969 118.15 24.8564 118.623 24.5752C119.096 24.2942 119.542 23.8945 119.962 23.3763V17.3155C119.594 16.8676 119.192 16.5513 118.754 16.3669C118.326 16.1824 117.862 16.0902 117.363 16.0902C116.873 16.0902 116.427 16.1824 116.024 16.3669C115.63 16.5513 115.294 16.8324 115.014 17.2101C114.742 17.579 114.532 18.0533 114.383 18.633C114.235 19.204 114.161 19.8803 114.161 20.6621C114.161 21.4527 114.222 22.1246 114.344 22.678C114.476 23.2226 114.659 23.6706 114.895 24.0219C115.132 24.3645 115.42 24.6148 115.762 24.7729C116.103 24.9222 116.484 24.9969 116.903 24.9969Z" fill="#30424F"/>
<path opacity="0.6" fill-rule="evenodd" clip-rule="evenodd" d="M5.80336 6.1431C6.38844 4.13289 8.48615 2.97941 10.4887 3.56673L23.1084 7.26795C25.111 7.85529 26.2601 9.96099 25.675 11.9712L20.0242 31.3859C19.4391 33.3961 17.3414 34.5497 15.3389 33.9623L2.71912 30.2611C0.716567 29.6738 -0.432511 27.5681 0.152577 25.5579L5.80336 6.1431ZM9.67373 6.36659C9.21163 6.23105 8.72758 6.49724 8.59256 6.9611L2.94175 26.3759C2.80674 26.8397 3.0719 27.3257 3.53403 27.4613L16.1538 31.1625C16.616 31.298 17.1 31.0318 17.235 30.5679L22.8858 11.1532C23.0208 10.6892 22.7557 10.2033 22.2935 10.0678L9.67373 6.36659Z" fill="#30424F"/>
<path opacity="0.6" fill-rule="evenodd" clip-rule="evenodd" d="M13.687 2.72952C14.2721 0.719316 16.3698 -0.434167 18.3724 0.15316L30.9922 3.85439C32.9947 4.44171 34.1438 6.54742 33.5587 8.55765L27.9079 27.9724C27.3228 29.9826 25.2252 31.1361 23.2226 30.5488L10.6028 26.8475C8.60025 26.2602 7.45122 24.1544 8.03631 22.1443L13.687 2.72952ZM17.5575 2.95301C17.0954 2.81747 16.6112 3.08366 16.4762 3.54755L10.8255 22.9623C10.6905 23.4262 10.9556 23.9121 11.4177 24.0477L24.0375 27.7489C24.4996 27.8844 24.9837 27.6183 25.1188 27.1543L30.7696 7.73963C30.9046 7.27568 30.6394 6.78978 30.1773 6.65425L17.5575 2.95301Z" fill="#30424F"/>
</g>
</svg>
