<svg width="167" height="28" viewBox="0 0 167 28" fill="none" xmlns="http://www.w3.org/2000/svg">
<g opacity="0.6">
<path opacity="0.4" d="M28.8919 10.2481L17.5454 18.2189H12.5023L1.15576 10.2481L15.0239 1.13867L28.8919 10.2481Z" fill="#30424F"/>
<path opacity="0.6" fill-rule="evenodd" clip-rule="evenodd" d="M14.3827 0.19124C14.7709 -0.0637467 15.2766 -0.0637467 15.6648 0.19124L29.5329 9.30064C29.8543 9.51187 30.0475 9.86739 30.0475 10.2481V25.0509C30.0475 25.6549 29.804 26.2341 29.3705 26.6612C28.937 27.0883 28.3491 27.3283 27.7361 27.3283H2.31134C1.69834 27.3283 1.11044 27.0883 0.676979 26.6612C0.243514 26.2341 0 25.6549 0 25.0509V10.2481C0 9.86739 0.193115 9.51187 0.514621 9.30064L14.3827 0.19124ZM2.31134 10.8575V25.0509H27.7361V10.8575L15.0237 2.50719L2.31134 10.8575Z" fill="#30424F"/>
<path opacity="0.6" fill-rule="evenodd" clip-rule="evenodd" d="M13.4466 17.5619C13.8149 18.0755 13.6907 18.7861 13.1694 19.1489L2.17921 26.7979C1.65789 27.1606 0.936765 27.0384 0.568527 26.5247C0.200282 26.0111 0.324375 25.3005 0.845694 24.9377L11.836 17.2888C12.3573 16.926 13.0784 17.0483 13.4466 17.5619Z" fill="#30424F"/>
<path opacity="0.6" fill-rule="evenodd" clip-rule="evenodd" d="M16.6017 17.5619C16.97 17.0483 17.6911 16.926 18.2124 17.2888L29.2029 24.9378C29.7242 25.3007 29.8483 26.0111 29.4801 26.5249C29.1118 27.0385 28.3907 27.1608 27.8694 26.7979L16.8789 19.1489C16.3576 18.7861 16.2335 18.0756 16.6017 17.5619Z" fill="#30424F"/>
<path opacity="0.6" fill-rule="evenodd" clip-rule="evenodd" d="M0.214767 9.58708C0.585298 9.07501 1.30696 8.95593 1.82666 9.321L12.8721 17.0802H17.1755L28.221 9.321C28.7407 8.95593 29.4624 9.07501 29.8329 9.58708C30.2034 10.0992 30.0825 10.8102 29.5628 11.1753L18.2163 19.146C18.0204 19.2836 17.7858 19.3575 17.5454 19.3575H12.5023C12.2617 19.3575 12.0272 19.2836 11.8314 19.146L0.484865 11.1753C-0.0348338 10.8102 -0.15576 10.0992 0.214767 9.58708Z" fill="#30424F"/>
<path opacity="0.6" d="M42.4844 23.1318C42.1746 23.1318 41.9137 23.0273 41.7017 22.8184C41.4897 22.6096 41.3837 22.3525 41.3837 22.0472V7.65945C41.3837 7.22565 41.5386 6.85612 41.8484 6.55084C42.1583 6.22951 42.5333 6.06885 42.9736 6.06885H43.2916C43.8134 6.06885 44.2618 6.30985 44.6369 6.79185L54.0539 20.1915V7.17745C54.0539 6.87218 54.1599 6.61511 54.3719 6.40625C54.5838 6.18131 54.8448 6.06885 55.1546 6.06885C55.4645 6.06885 55.7253 6.18131 55.9373 6.40625C56.1656 6.61511 56.2797 6.87218 56.2797 7.17745V21.5652C56.2797 21.999 56.1167 22.3686 55.7905 22.6738C55.4808 22.9791 55.1057 23.1318 54.6654 23.1318H54.3719C54.111 23.1318 53.8664 23.0755 53.6381 22.963C53.4098 22.8345 53.2223 22.6739 53.0755 22.481L43.6096 9.00905V22.0472C43.6096 22.3525 43.4954 22.6096 43.2672 22.8184C43.0551 23.0273 42.7943 23.1318 42.4844 23.1318Z" fill="#30424F"/>
<path opacity="0.6" d="M65.7473 23.2524C64.4917 23.2524 63.391 22.9873 62.4452 22.4571C61.4994 21.9269 60.7656 21.1798 60.2438 20.2158C59.7383 19.2357 59.4855 18.119 59.4855 16.8658C59.4855 15.6126 59.7383 14.504 60.2438 13.54C60.7656 12.5599 61.4994 11.8048 62.4452 11.2746C63.391 10.7444 64.4917 10.4792 65.7473 10.4792C66.9865 10.4792 68.0791 10.7444 69.0248 11.2746C69.9707 11.8048 70.7044 12.5599 71.2262 13.54C71.748 14.504 72.009 15.6126 72.009 16.8658C72.009 18.119 71.748 19.2357 71.2262 20.2158C70.7044 21.1798 69.9707 21.9269 69.0248 22.4571C68.0791 22.9873 66.9865 23.2524 65.7473 23.2524ZM65.7473 21.252C66.4158 21.252 67.0518 21.0994 67.6551 20.7941C68.2748 20.4888 68.7803 20.0069 69.1716 19.3482C69.5793 18.6894 69.7831 17.854 69.7831 16.8418C69.7831 15.8456 69.5793 15.0181 69.1716 14.3594C68.7803 13.7006 68.2748 13.2267 67.6551 12.9375C67.0518 12.6322 66.4158 12.4796 65.7473 12.4796C65.0624 12.4796 64.4101 12.6322 63.7904 12.9375C63.1871 13.2267 62.6897 13.7006 62.2984 14.3594C61.9071 15.0181 61.7114 15.8456 61.7114 16.8418C61.7114 17.854 61.9071 18.6894 62.2984 19.3482C62.6897 20.0069 63.1871 20.4888 63.7904 20.7941C64.4101 21.0994 65.0624 21.252 65.7473 21.252Z" fill="#30424F"/>
<path opacity="0.6" d="M78.6758 23.1319C78.3497 23.1319 78.0561 23.0355 77.7953 22.8427C77.5343 22.6499 77.355 22.4089 77.2572 22.1197L73.7838 12.0941C73.7349 11.9495 73.7104 11.8128 73.7104 11.6844C73.7104 11.3791 73.8164 11.122 74.0284 10.9131C74.2404 10.7043 74.5013 10.5999 74.8111 10.5999C75.0394 10.5999 75.2433 10.6641 75.4226 10.7926C75.6183 10.9051 75.7488 11.0577 75.814 11.2505L78.6758 20.5291L81.5132 11.4674C81.5947 11.2103 81.7414 11.0015 81.9534 10.8408C82.1817 10.6801 82.4345 10.5999 82.7116 10.5999C82.9889 10.5999 83.2338 10.6801 83.4453 10.8408C83.6734 11.0015 83.8289 11.2103 83.91 11.4674L86.7476 20.5291L89.6094 11.2505C89.6746 11.0577 89.7967 10.9051 89.9764 10.7926C90.1719 10.6641 90.3842 10.5999 90.6124 10.5999C90.9217 10.5999 91.1833 10.7043 91.3947 10.9131C91.607 11.122 91.7132 11.3791 91.7132 11.6844C91.7132 11.8128 91.6881 11.9495 91.6396 12.0941L88.166 22.1197C88.0682 22.4089 87.8893 22.6499 87.6277 22.8427C87.3669 23.0355 87.0736 23.1319 86.7476 23.1319C86.4216 23.1319 86.1282 23.0355 85.8666 22.8427C85.6058 22.6499 85.4186 22.4009 85.3041 22.0956L82.7116 14.1185L80.1189 22.0956C80.0048 22.4009 79.8173 22.6499 79.5563 22.8427C79.2955 23.0355 79.0019 23.1319 78.6758 23.1319Z" fill="#30424F"/>
<path opacity="0.6" fill-rule="evenodd" clip-rule="evenodd" d="M44.7652 6.6944C44.7668 6.69646 44.7683 6.69855 44.7698 6.70068L53.8907 19.6788V7.17746C53.8907 6.83231 54.012 6.53475 54.2541 6.2951C54.4964 6.03917 54.7996 5.90869 55.154 5.90869C55.5073 5.90869 55.8098 6.03843 56.0517 6.29293C56.31 6.53125 56.4417 6.82935 56.4417 7.17746V21.5652C56.4417 22.0434 56.26 22.4541 55.9034 22.7886C55.5632 23.123 55.1472 23.2919 54.6648 23.2919H54.3712C54.0856 23.2919 53.8161 23.2302 53.5648 23.1063C53.5621 23.105 53.5594 23.1036 53.5568 23.1021C53.3107 22.9636 53.1059 22.7887 52.9448 22.5772L52.9412 22.5722L43.7714 9.52176V22.0472C43.7714 22.3963 43.6391 22.6951 43.3793 22.9338C43.1361 23.1724 42.8341 23.2919 42.4838 23.2919C42.1324 23.2919 41.8297 23.1717 41.5861 22.9317C41.3425 22.6916 41.2205 22.3934 41.2205 22.0472V7.65947C41.2205 7.1841 41.3919 6.77425 41.7314 6.43905C42.0709 6.08765 42.4877 5.90869 42.973 5.90869H43.2909C43.8728 5.90869 44.3657 6.18093 44.7652 6.6944ZM41.8478 6.55085C42.1576 6.22952 42.5327 6.06885 42.973 6.06885H43.2909C43.8127 6.06885 44.2612 6.30986 44.6362 6.79186L54.0532 20.1915V7.17746C54.0532 6.87219 54.1593 6.61512 54.3712 6.40626C54.5832 6.18132 54.8442 6.06885 55.154 6.06885C55.4637 6.06885 55.7247 6.18132 55.9366 6.40626C56.1649 6.61512 56.2791 6.87219 56.2791 7.17746V21.5652C56.2791 21.9991 56.116 22.3686 55.7899 22.6739C55.48 22.9791 55.105 23.1317 54.6648 23.1317H54.3712C54.1103 23.1317 53.8657 23.0755 53.6375 22.9631C53.4091 22.8345 53.2217 22.6739 53.0749 22.4811L43.6089 9.00903V22.0472C43.6089 22.3525 43.4948 22.6095 43.2664 22.8185C43.0545 23.0273 42.7936 23.1317 42.4838 23.1317C42.1739 23.1317 41.913 23.0273 41.701 22.8185C41.4891 22.6095 41.3831 22.3525 41.3831 22.0472V7.65947C41.3831 7.22566 41.538 6.85612 41.8478 6.55085ZM60.0982 20.2882C59.5796 19.2826 59.3223 18.1406 59.3223 16.8657C59.3223 15.5909 59.5796 14.4564 60.0987 13.4664L60.0991 13.4655C60.635 12.4592 61.3904 11.6811 62.3641 11.1353C63.3379 10.5893 64.4672 10.319 65.7466 10.319C67.0101 10.319 68.131 10.5896 69.1046 11.1353C70.0781 11.6811 70.8334 12.4588 71.3692 13.4648C71.9052 14.4551 72.1709 15.5903 72.1709 16.8657C72.1709 18.1414 71.9051 19.2841 71.3695 20.2901L71.369 20.291C70.833 21.2812 70.0776 22.0507 69.1046 22.5961C68.131 23.1419 67.0101 23.4124 65.7466 23.4124C64.4672 23.4124 63.3379 23.1421 62.3641 22.5961C61.3911 22.0507 60.6356 21.2812 60.0997 20.291L60.0982 20.2882ZM71.2256 13.5399C70.7038 12.5598 69.97 11.8047 69.0242 11.2745C68.0785 10.7443 66.9859 10.4792 65.7466 10.4792C64.4909 10.4792 63.3903 10.7443 62.4445 11.2745C61.4987 11.8047 60.7649 12.5598 60.2431 13.5399C59.7376 14.5039 59.4849 15.6125 59.4849 16.8657C59.4849 18.1189 59.7376 19.2355 60.2431 20.2156C60.7649 21.1796 61.4987 21.9268 62.4445 22.4569C63.3903 22.9871 64.4909 23.2522 65.7466 23.2522C66.9859 23.2522 68.0785 22.9871 69.0242 22.4569C69.97 21.9268 70.7038 21.1796 71.2256 20.2156C71.7474 19.2355 72.0083 18.1189 72.0083 16.8657C72.0083 15.6125 71.7474 14.5039 71.2256 13.5399ZM67.5802 20.6515L67.5817 20.6508C68.17 20.361 68.6532 19.9024 69.0307 19.2671L69.0321 19.2646C69.4201 18.6377 69.6199 17.8334 69.6199 16.8416C69.6199 15.8665 69.4204 15.07 69.0321 14.4427L69.0306 14.4402C68.6536 13.8055 68.1712 13.3558 67.5848 13.0821L67.5801 13.0799C66.9994 12.7862 66.3889 12.6396 65.7466 12.6396C65.0872 12.6396 64.4599 12.7864 63.8625 13.0806L63.8609 13.0814C63.2907 13.3547 62.8157 13.8044 62.438 14.4402C62.0651 15.068 61.8732 15.8655 61.8732 16.8416C61.8732 17.8344 62.0652 18.6396 62.438 19.2671C62.8159 19.9031 63.2915 20.3617 63.8633 20.6512C64.4604 20.9452 65.0876 21.0918 65.7466 21.0918C66.3889 21.0918 66.9995 20.9454 67.5802 20.6515ZM63.7898 20.7941C63.1865 20.4888 62.6891 20.0068 62.2978 19.348C61.9064 18.6893 61.7107 17.8538 61.7107 16.8416C61.7107 15.8455 61.9064 15.018 62.2978 14.3593C62.6891 13.7006 63.1865 13.2266 63.7898 12.9374C64.4095 12.6322 65.0617 12.4795 65.7466 12.4795C66.4152 12.4795 67.0511 12.6322 67.6544 12.9374C68.2741 13.2266 68.7796 13.7006 69.171 14.3593C69.5786 15.018 69.7824 15.8455 69.7824 16.8416C69.7824 17.8538 69.5786 18.6893 69.171 19.348C68.7796 20.0068 68.2741 20.4888 67.6544 20.7941C67.0511 21.0993 66.4152 21.252 65.7466 21.252C65.0617 21.252 64.4095 21.0993 63.7898 20.7941ZM91.6388 12.0939L88.1652 22.1195C88.0674 22.4088 87.8885 22.6497 87.6277 22.8425C87.3661 23.0353 87.0727 23.1317 86.7468 23.1317C86.4208 23.1317 86.1274 23.0353 85.8666 22.8425C85.605 22.6497 85.4178 22.4007 85.3041 22.0954L82.711 14.1183L80.1183 22.0954C80.0041 22.4007 79.8166 22.6497 79.5557 22.8425C79.2948 23.0353 79.0013 23.1317 78.6752 23.1317C78.349 23.1317 78.0555 23.0353 77.7945 22.8425C77.5337 22.6497 77.3543 22.4088 77.2564 22.1195L73.7832 12.0939C73.7342 11.9493 73.7098 11.8127 73.7098 11.6842C73.7098 11.3789 73.8158 11.1219 74.0277 10.913C74.2397 10.7041 74.5007 10.5997 74.8105 10.5997C75.0388 10.5997 75.2426 10.6639 75.422 10.7925C75.6176 10.905 75.7481 11.0576 75.8133 11.2504L78.6752 20.5289L81.5124 11.4673C81.594 11.2102 81.7408 11.0013 81.9528 10.8406C82.181 10.68 82.4338 10.5997 82.711 10.5997C82.9881 10.5997 83.233 10.68 83.4444 10.8406C83.6735 11.0013 83.8281 11.2102 83.9092 11.4673L86.7468 20.5289L89.6086 11.2504C89.6738 11.0576 89.7958 10.905 89.9755 10.7925C90.1711 10.6639 90.3834 10.5997 90.6116 10.5997C90.9217 10.5997 91.1825 10.7041 91.3939 10.913C91.6062 11.1219 91.7124 11.3789 91.7124 11.6842C91.7124 11.8127 91.6881 11.9493 91.6388 12.0939ZM89.8869 10.6582C90.1076 10.5134 90.3508 10.4395 90.6116 10.4395C90.9626 10.4395 91.2652 10.5597 91.5093 10.7997C91.7525 11.0398 91.8745 11.3381 91.8745 11.6842C91.8745 11.8328 91.8461 11.9866 91.7935 12.1445L91.7926 12.1456L88.3198 22.1702C88.3198 22.1704 88.3198 22.1707 88.3198 22.171C88.2103 22.4924 88.0105 22.7596 87.7247 22.9707C87.4363 23.1843 87.1078 23.2919 86.7468 23.2919C86.3857 23.2919 86.058 23.1843 85.7689 22.9707C85.4822 22.7591 85.2757 22.4847 85.1512 22.1508C85.1503 22.1486 85.1495 22.1465 85.1487 22.1442L82.711 14.6435L80.2731 22.1442C80.2723 22.1465 80.2716 22.1486 80.2707 22.1508C80.146 22.4847 79.9395 22.7591 79.6532 22.9707C79.3642 23.1843 79.0364 23.2919 78.6752 23.2919C78.3138 23.2919 77.9861 23.1843 77.697 22.9707C77.4114 22.7596 77.2115 22.4924 77.1025 22.171C77.1024 22.1707 77.1023 22.1704 77.1022 22.1702L73.629 12.1445C73.5755 11.9866 73.5472 11.8328 73.5472 11.6842C73.5472 11.3381 73.6692 11.0398 73.9128 10.7997C74.1564 10.5597 74.4591 10.4395 74.8105 10.4395C75.0693 10.4395 75.3045 10.5123 75.5109 10.6582C75.7334 10.7879 75.8894 10.9687 75.9675 11.1997L75.9689 11.2038L78.6763 19.9819L81.3571 11.4201L81.3573 11.4195C81.4486 11.1318 81.6145 10.8949 81.8536 10.7137L81.8582 10.7104C82.1137 10.5305 82.3995 10.4395 82.711 10.4395C83.0215 10.4395 83.3007 10.5301 83.5414 10.7119C83.7963 10.8921 83.9727 11.129 84.0646 11.4195V11.4201L86.7459 19.9819L89.454 11.1997C89.5317 10.9714 89.678 10.7898 89.8869 10.6582Z" fill="#30424F"/>
<path opacity="0.6" d="M96.7582 23.1318C96.4481 23.1318 96.1873 23.0273 95.975 22.8184C95.7636 22.6096 95.6574 22.3525 95.6574 22.0472V7.17745C95.6574 6.87218 95.7636 6.61511 95.975 6.40625C96.1873 6.18131 96.4481 6.06885 96.7582 6.06885C97.0683 6.06885 97.329 6.18131 97.5405 6.40625C97.7687 6.61511 97.8832 6.87218 97.8832 7.17745V22.0472C97.8832 22.3525 97.7687 22.6096 97.5405 22.8184C97.329 23.0273 97.0683 23.1318 96.7582 23.1318Z" fill="#30424F"/>
<path opacity="0.6" d="M103.054 23.1319C102.744 23.1319 102.483 23.0274 102.271 22.8185C102.059 22.6097 101.953 22.3526 101.953 22.0474V11.7084C101.953 11.4031 102.059 11.1461 102.271 10.9372C102.483 10.7122 102.744 10.5998 103.054 10.5998C103.364 10.5998 103.624 10.7122 103.837 10.9372C104.065 11.1461 104.179 11.4031 104.179 11.7084V12.6965C104.799 12.0217 105.467 11.4835 106.185 11.0818C106.903 10.6801 107.75 10.4792 108.729 10.4792C109.626 10.4792 110.4 10.6882 111.052 11.1059C111.721 11.5236 112.226 12.094 112.569 12.817C112.927 13.54 113.107 14.3353 113.107 15.2029V22.0474C113.107 22.3526 112.992 22.6097 112.764 22.8185C112.553 23.0274 112.291 23.1319 111.982 23.1319C111.672 23.1319 111.411 23.0274 111.199 22.8185C110.987 22.6097 110.881 22.3526 110.881 22.0474V15.4439C110.881 13.4837 109.984 12.5037 108.191 12.5037C107.375 12.5037 106.641 12.7126 105.989 13.1303C105.353 13.548 104.749 14.1104 104.179 14.8173V22.0474C104.179 22.3526 104.065 22.6097 103.837 22.8185C103.624 23.0274 103.364 23.1319 103.054 23.1319Z" fill="#30424F"/>
<path opacity="0.6" fill-rule="evenodd" clip-rule="evenodd" d="M96.7582 23.2919C96.4072 23.2919 96.1038 23.1717 95.8606 22.9317C95.6173 22.6916 95.4953 22.3934 95.4953 22.0472V7.17746C95.4953 6.83231 95.6165 6.53475 95.858 6.2951C96.1004 6.03917 96.4038 5.90869 96.7582 5.90869C97.1118 5.90869 97.4143 6.03843 97.6559 6.29293C97.9142 6.53125 98.0462 6.82935 98.0462 7.17746V22.0472C98.0462 22.3963 97.9133 22.6951 97.6534 22.9338C97.4102 23.1724 97.1084 23.2919 96.7582 23.2919ZM97.5406 22.8185C97.7696 22.6095 97.8832 22.3525 97.8832 22.0472V7.17746C97.8832 6.87219 97.7696 6.61512 97.5406 6.40626C97.3291 6.18132 97.0683 6.06885 96.7582 6.06885C96.4481 6.06885 96.1874 6.18132 95.9759 6.40626C95.7636 6.61512 95.6574 6.87219 95.6574 7.17746V22.0472C95.6574 22.3525 95.7636 22.6095 95.9759 22.8185C96.1874 23.0273 96.4481 23.1317 96.7582 23.1317C97.0683 23.1317 97.3291 23.0273 97.5406 22.8185ZM103.054 23.2919C102.703 23.2919 102.4 23.1717 102.156 22.9317C101.913 22.6916 101.791 22.3934 101.791 22.0472V11.7083C101.791 11.3632 101.912 11.0656 102.154 10.8259C102.397 10.57 102.7 10.4395 103.054 10.4395C103.407 10.4395 103.71 10.5693 103.951 10.8238C104.21 11.0621 104.342 11.3602 104.342 11.7083V12.2934C104.892 11.7433 105.479 11.2926 106.104 10.9424C106.851 10.5247 107.728 10.319 108.729 10.319C109.652 10.319 110.458 10.5342 111.14 10.971C111.835 11.4052 112.36 11.9987 112.716 12.7479C113.085 13.4941 113.27 14.3133 113.27 15.2028V22.0472C113.27 22.3963 113.137 22.6951 112.877 22.9338C112.634 23.1724 112.332 23.2919 111.982 23.2919C111.631 23.2919 111.327 23.1717 111.084 22.9317C110.841 22.6916 110.719 22.3934 110.719 22.0472V15.4438C110.719 14.4846 110.499 13.7951 110.088 13.3459C109.68 12.8999 109.057 12.6638 108.191 12.6638C107.406 12.6638 106.703 12.8643 106.078 13.264C105.472 13.6623 104.893 14.1978 104.342 14.8734V22.0472C104.342 22.3963 104.21 22.6951 103.95 22.9338C103.706 23.1724 103.405 23.2919 103.054 23.2919ZM103.837 22.8185C104.065 22.6095 104.179 22.3525 104.179 22.0472V14.8172C104.75 14.1102 105.353 13.5479 105.989 13.1302C106.642 12.7124 107.375 12.5036 108.191 12.5036C109.984 12.5036 110.881 13.4837 110.881 15.4438V22.0472C110.881 22.3525 110.987 22.6095 111.199 22.8185C111.411 23.0273 111.672 23.1317 111.982 23.1317C112.292 23.1317 112.553 23.0273 112.764 22.8185C112.993 22.6095 113.107 22.3525 113.107 22.0472V15.2028C113.107 14.3352 112.927 13.5399 112.569 12.8169C112.227 12.0939 111.721 11.5235 111.052 11.1058C110.4 10.688 109.626 10.4792 108.729 10.4792C107.75 10.4792 106.903 10.68 106.185 11.0817C105.529 11.4485 104.915 11.9291 104.342 12.5237C104.287 12.5802 104.233 12.6378 104.179 12.6964V11.7083C104.179 11.403 104.065 11.1459 103.837 10.9371C103.624 10.7122 103.364 10.5997 103.054 10.5997C102.744 10.5997 102.484 10.7122 102.271 10.9371C102.059 11.1459 101.954 11.403 101.954 11.7083V22.0472C101.954 22.3525 102.059 22.6095 102.271 22.8185C102.484 23.0273 102.744 23.1317 103.054 23.1317C103.364 23.1317 103.624 23.0273 103.837 22.8185Z" fill="#30424F"/>
<path opacity="0.6" d="M120.666 23.1318C120.357 23.1318 120.095 23.0274 119.884 22.8186C119.671 22.6096 119.565 22.3526 119.565 22.0473V8.23797H114.575C114.282 8.23797 114.038 8.14153 113.842 7.94874C113.646 7.75595 113.548 7.51496 113.548 7.22576C113.548 6.93655 113.646 6.69555 113.842 6.50275C114.038 6.29388 114.282 6.18945 114.575 6.18945H126.757C127.05 6.18945 127.295 6.29388 127.49 6.50275C127.703 6.69555 127.808 6.93655 127.808 7.22576C127.808 7.51496 127.703 7.75595 127.49 7.94874C127.295 8.14153 127.05 8.23797 126.757 8.23797H121.791V22.0473C121.791 22.3526 121.677 22.6096 121.449 22.8186C121.237 23.0274 120.976 23.1318 120.666 23.1318Z" fill="#30424F"/>
<path opacity="0.6" d="M134.068 23.2523C132.079 23.2523 130.521 22.698 129.396 21.5894C128.288 20.4647 127.733 18.8902 127.733 16.8658C127.733 15.725 127.945 14.6727 128.369 13.7086C128.793 12.7446 129.445 11.9654 130.326 11.371C131.207 10.7765 132.291 10.4792 133.579 10.4792C134.786 10.4792 135.829 10.7604 136.71 11.3227C137.591 11.869 138.259 12.6081 138.716 13.54C139.172 14.4557 139.4 15.46 139.4 16.5524C139.4 16.8577 139.295 17.1148 139.082 17.3237C138.887 17.5325 138.618 17.637 138.275 17.637H129.984C130.114 18.7616 130.538 19.6373 131.255 20.2638C131.973 20.8905 132.976 21.2038 134.264 21.2038C134.948 21.2038 135.544 21.1395 136.049 21.011C136.572 20.8825 137.076 20.6977 137.566 20.4567C137.697 20.3924 137.843 20.3603 138.006 20.3603C138.268 20.3603 138.496 20.4486 138.691 20.6254C138.887 20.8021 138.985 21.0271 138.985 21.3002C138.985 21.6536 138.772 21.9509 138.349 22.1919C137.713 22.5454 137.085 22.8104 136.466 22.9872C135.845 23.1639 135.046 23.2523 134.068 23.2523ZM137.199 15.8536C137.15 15.0663 136.939 14.4076 136.563 13.8774C136.205 13.3472 135.756 12.9615 135.218 12.7206C134.679 12.4635 134.134 12.3349 133.579 12.3349C133.024 12.3349 132.479 12.4635 131.94 12.7206C131.402 12.9615 130.953 13.3472 130.595 13.8774C130.236 14.4076 130.032 15.0663 129.984 15.8536H137.199Z" fill="#30424F"/>
<path opacity="0.6" d="M148.118 23.2523C146.944 23.2523 145.859 22.9952 144.865 22.4811C143.87 21.967 143.071 21.2279 142.468 20.2638C141.881 19.2999 141.587 18.1671 141.587 16.8658C141.587 15.5644 141.881 14.4317 142.468 13.4677C143.071 12.5036 143.87 11.7646 144.865 11.2504C145.859 10.7363 146.944 10.4792 148.118 10.4792C148.983 10.4792 149.724 10.5917 150.344 10.8166C150.98 11.0255 151.567 11.2987 152.105 11.6361C152.431 11.8449 152.594 12.1261 152.594 12.4795C152.594 12.7206 152.497 12.9455 152.301 13.1543C152.121 13.3472 151.909 13.4435 151.665 13.4435C151.485 13.4435 151.306 13.3954 151.127 13.2989C150.588 13.0258 150.124 12.833 149.733 12.7206C149.357 12.592 148.884 12.5278 148.314 12.5278C146.912 12.5278 145.811 12.9294 145.012 13.7328C144.213 14.5201 143.813 15.5644 143.813 16.8658C143.813 18.1671 144.213 19.2195 145.012 20.0229C145.811 20.8102 146.912 21.2038 148.314 21.2038C148.884 21.2038 149.357 21.1476 149.733 21.0351C150.124 20.9065 150.588 20.7058 151.127 20.4326C151.306 20.3362 151.485 20.288 151.665 20.288C151.909 20.288 152.121 20.3924 152.301 20.6012C152.497 20.7941 152.594 21.011 152.594 21.252C152.594 21.6055 152.431 21.8866 152.105 22.0955C151.567 22.4329 150.98 22.7141 150.344 22.939C149.724 23.1478 148.983 23.2523 148.118 23.2523Z" fill="#30424F"/>
<path opacity="0.6" d="M156.489 23.1317C156.178 23.1317 155.918 23.0273 155.705 22.8184C155.494 22.6095 155.388 22.3525 155.388 22.0472V6.40622C155.388 6.10094 155.494 5.84388 155.705 5.63501C155.918 5.41008 156.178 5.29761 156.489 5.29761C156.799 5.29761 157.059 5.41008 157.271 5.63501C157.499 5.84388 157.614 6.10094 157.614 6.40622V12.6963C158.233 12.0215 158.902 11.4833 159.62 11.0816C160.337 10.68 161.185 10.4791 162.163 10.4791C163.06 10.4791 163.835 10.688 164.487 11.1058C165.155 11.5235 165.661 12.0938 166.004 12.8168C166.362 13.5399 166.542 14.3352 166.542 15.2027V22.0472C166.542 22.3525 166.427 22.6095 166.199 22.8184C165.987 23.0273 165.726 23.1317 165.416 23.1317C165.107 23.1317 164.846 23.0273 164.634 22.8184C164.421 22.6095 164.315 22.3525 164.315 22.0472V15.4438C164.315 13.4836 163.418 12.5035 161.625 12.5035C160.81 12.5035 160.076 12.7124 159.424 13.1302C158.788 13.5479 158.184 14.1103 157.614 14.8172V22.0472C157.614 22.3525 157.499 22.6095 157.271 22.8184C157.059 23.0273 156.799 23.1317 156.489 23.1317Z" fill="#30424F"/>
<path opacity="0.6" fill-rule="evenodd" clip-rule="evenodd" d="M129.279 21.7009C128.133 20.5383 127.57 18.9191 127.57 16.8657C127.57 15.705 127.786 14.6307 128.219 13.6449C128.656 12.6532 129.328 11.8503 130.234 11.2387C131.146 10.6225 132.264 10.319 133.579 10.319C134.811 10.319 135.886 10.6065 136.797 11.1877C137.703 11.75 138.391 12.5117 138.861 13.4699C139.329 14.4091 139.562 15.4374 139.562 16.5524C139.562 16.8974 139.441 17.195 139.199 17.4345C138.967 17.6808 138.652 17.7971 138.274 17.7971H130.168C130.317 18.8037 130.718 19.5813 131.363 20.1439C132.042 20.7368 133.001 21.0436 134.263 21.0436C134.938 21.0436 135.519 20.9802 136.008 20.8558L136.009 20.8556C136.52 20.7299 137.014 20.5492 137.493 20.3133C137.648 20.2367 137.82 20.2 138.006 20.2C138.308 20.2 138.575 20.304 138.8 20.5072C139.032 20.7158 139.147 20.9844 139.147 21.3001C139.147 21.731 138.883 22.0727 138.429 22.3306L138.428 22.3313C137.783 22.6901 137.143 22.9603 136.51 23.1409C135.87 23.3234 135.054 23.4124 134.068 23.4124C132.047 23.4124 130.443 22.8483 129.281 21.7026L129.279 21.7009ZM130.004 17.7971C129.996 17.7443 129.989 17.6908 129.983 17.6369H138.274C138.617 17.6369 138.886 17.5325 139.082 17.3236C139.294 17.1148 139.4 16.8577 139.4 16.5524C139.4 15.4599 139.172 14.4557 138.715 13.5399C138.258 12.608 137.59 11.869 136.71 11.3226C135.829 10.7603 134.785 10.4792 133.579 10.4792C132.29 10.4792 131.206 10.7764 130.326 11.3709C129.445 11.9653 128.793 12.7445 128.368 13.7086C127.944 14.6726 127.733 15.725 127.733 16.8657C127.733 18.8901 128.287 20.4646 129.395 21.5893C130.521 22.6979 132.078 23.2522 134.068 23.2522C135.046 23.2522 135.845 23.1638 136.465 22.9871C137.084 22.8104 137.712 22.5453 138.348 22.1918C138.772 21.9508 138.984 21.6536 138.984 21.3001C138.984 21.0269 138.886 20.802 138.691 20.6253C138.495 20.4486 138.267 20.3602 138.006 20.3602C137.842 20.3602 137.696 20.3923 137.565 20.4566C137.077 20.6976 136.571 20.8824 136.048 21.0109C135.544 21.1394 134.949 21.2037 134.263 21.2037C132.975 21.2037 131.972 20.8904 131.255 20.2638C130.571 19.6673 130.154 18.845 130.004 17.7971ZM136.427 13.9661C136.084 13.4584 135.658 13.0938 135.15 12.8663L135.147 12.8646C134.628 12.6173 134.106 12.495 133.579 12.495C133.05 12.495 132.528 12.6172 132.011 12.8646L132.006 12.8663C131.499 13.0938 131.073 13.4584 130.729 13.9661C130.416 14.4301 130.223 15.0038 130.158 15.6933H137.023C136.957 15.0051 136.757 14.4324 136.429 13.9689L136.427 13.9661ZM137.186 15.6933C137.191 15.7461 137.195 15.7995 137.199 15.8534H129.983C129.986 15.7995 129.99 15.7461 129.995 15.6933C130.061 14.9765 130.26 14.3711 130.594 13.8773C130.953 13.347 131.401 12.9615 131.94 12.7205C132.478 12.4634 133.024 12.3348 133.579 12.3348C134.133 12.3348 134.679 12.4634 135.217 12.7205C135.755 12.9615 136.204 13.347 136.563 13.8773C136.912 14.3711 137.12 14.9765 137.186 15.6933ZM142.329 20.3478L142.328 20.3462C141.724 19.3536 141.424 18.1914 141.424 16.8657C141.424 15.5399 141.724 14.3778 142.328 13.3852L142.329 13.3835C142.947 12.3956 143.767 11.6363 144.789 11.1085C145.808 10.5818 146.918 10.319 148.118 10.319C148.994 10.319 149.755 10.4328 150.397 10.6654C151.044 10.8781 151.642 11.1564 152.192 11.5008L152.193 11.5017C152.561 11.7371 152.757 12.0665 152.757 12.4794C152.757 12.7678 152.638 13.0301 152.42 13.2629C152.212 13.4854 151.958 13.6036 151.664 13.6036C151.454 13.6036 151.25 13.5472 151.05 13.4404C150.517 13.1704 150.064 12.9827 149.687 12.8742L149.682 12.8731L149.678 12.8718C149.326 12.751 148.873 12.6878 148.313 12.6878C146.943 12.6878 145.889 13.0789 145.127 13.8448L145.126 13.8459C144.362 14.5981 143.975 15.5991 143.975 16.8657C143.975 18.1319 144.362 19.1414 145.126 19.91C145.888 20.6601 146.943 21.0436 148.313 21.0436C148.873 21.0436 149.328 20.9883 149.682 20.8824C150.063 20.7575 150.517 20.561 151.05 20.2909C151.25 20.1841 151.454 20.1277 151.664 20.1277C151.961 20.1277 152.215 20.2565 152.42 20.4926C152.639 20.7101 152.757 20.9648 152.757 21.2519C152.757 21.6648 152.561 21.9943 152.193 22.2297L152.192 22.2305C151.643 22.5747 151.045 22.8609 150.398 23.0896L150.396 23.0905C149.755 23.3065 148.994 23.4124 148.118 23.4124C146.918 23.4124 145.808 23.1496 144.789 22.6229C143.767 22.0951 142.947 21.3358 142.329 20.3478ZM152.3 20.6012C152.12 20.3923 151.909 20.2879 151.664 20.2879C151.484 20.2879 151.306 20.3361 151.126 20.4325C150.588 20.7057 150.123 20.9065 149.732 21.035C149.356 21.1475 148.884 21.2037 148.313 21.2037C146.911 21.2037 145.81 20.8101 145.011 20.0228C144.212 19.2195 143.812 18.1671 143.812 16.8657C143.812 15.5643 144.212 14.5199 145.011 13.7327C145.81 12.9293 146.911 12.5277 148.313 12.5277C148.884 12.5277 149.356 12.5919 149.732 12.7205C150.123 12.8329 150.588 13.0258 151.126 13.2989C151.306 13.3953 151.484 13.4435 151.664 13.4435C151.909 13.4435 152.12 13.347 152.3 13.1542C152.496 12.9454 152.594 12.7205 152.594 12.4794C152.594 12.126 152.431 11.8448 152.105 11.636C151.566 11.2986 150.98 11.0254 150.344 10.8166C149.723 10.5916 148.982 10.4792 148.118 10.4792C146.943 10.4792 145.859 10.7362 144.864 11.2503C143.869 11.7645 143.07 12.5036 142.468 13.4676C141.88 14.4315 141.587 15.5643 141.587 16.8657C141.587 18.1671 141.88 19.2998 142.468 20.2638C143.07 21.2278 143.869 21.9669 144.864 22.481C145.859 22.9952 146.943 23.2522 148.118 23.2522C148.982 23.2522 149.723 23.1478 150.344 22.9389C150.98 22.714 151.566 22.4328 152.105 22.0954C152.431 21.8865 152.594 21.6054 152.594 21.2519C152.594 21.0109 152.496 20.794 152.3 20.6012ZM120.665 23.2919C120.314 23.2919 120.012 23.1717 119.768 22.9317C119.524 22.6917 119.402 22.3933 119.402 22.0472V8.39803H114.575C114.241 8.39803 113.954 8.28669 113.726 8.06186C113.498 7.83709 113.385 7.55445 113.385 7.22563C113.385 6.89792 113.497 6.61607 113.724 6.39165C113.951 6.15084 114.238 6.02916 114.575 6.02916H126.756C127.092 6.02916 127.379 6.15005 127.605 6.3893C127.847 6.61233 127.97 6.89477 127.97 7.22563C127.97 7.55757 127.847 7.84076 127.603 8.06417C127.374 8.28743 127.088 8.39803 126.756 8.39803H121.953V22.0472C121.953 22.3963 121.821 22.6951 121.561 22.9337C121.318 23.1724 121.015 23.2919 120.665 23.2919ZM121.448 22.8184C121.677 22.6095 121.791 22.3525 121.791 22.0472V8.23785H126.756C127.049 8.23785 127.294 8.14141 127.49 7.94863C127.702 7.75583 127.808 7.51483 127.808 7.22563C127.808 6.93643 127.702 6.69543 127.49 6.50262C127.294 6.29376 127.049 6.18933 126.756 6.18933H114.575C114.281 6.18933 114.037 6.29376 113.842 6.50262C113.645 6.69543 113.547 6.93643 113.547 7.22563C113.547 7.51483 113.645 7.75583 113.842 7.94863C114.037 8.14141 114.281 8.23785 114.575 8.23785H119.564V22.0472C119.564 22.3525 119.671 22.6095 119.883 22.8184C120.095 23.0273 120.356 23.1317 120.665 23.1317C120.975 23.1317 121.236 23.0273 121.448 22.8184ZM156.488 23.2919C156.137 23.2919 155.833 23.1717 155.59 22.9317C155.347 22.6917 155.225 22.3933 155.225 22.0472V6.40623C155.225 6.06106 155.346 5.76349 155.588 5.52383C155.83 5.26792 156.133 5.13745 156.488 5.13745C156.841 5.13745 157.144 5.2672 157.385 5.52169C157.644 5.76001 157.776 6.05811 157.776 6.40623V12.2933C158.325 11.7433 158.912 11.2926 159.538 10.9424C160.285 10.5247 161.161 10.319 162.162 10.319C163.086 10.319 163.891 10.5342 164.574 10.971C165.269 11.4051 165.794 11.9986 166.149 12.7477C166.519 13.4939 166.703 14.3132 166.703 15.2028V22.0472C166.703 22.3963 166.571 22.6952 166.311 22.9338C166.068 23.1724 165.766 23.2919 165.416 23.2919C165.064 23.2919 164.761 23.1717 164.518 22.9317C164.274 22.6917 164.152 22.3933 164.152 22.0472V15.4437C164.152 14.4846 163.932 13.795 163.521 13.3459C163.113 12.8999 162.491 12.6637 161.625 12.6637C160.839 12.6637 160.137 12.8643 159.512 13.2639C158.906 13.6623 158.326 14.1977 157.776 14.8734V22.0472C157.776 22.3963 157.643 22.6951 157.384 22.9337C157.14 23.1724 156.838 23.2919 156.488 23.2919ZM157.271 22.8184C157.499 22.6095 157.613 22.3525 157.613 22.0472V14.8172C158.184 14.1103 158.787 13.5479 159.423 13.1302C160.075 12.7124 160.809 12.5036 161.625 12.5036C163.418 12.5036 164.315 13.4837 164.315 15.4437V22.0472C164.315 22.3525 164.42 22.6095 164.633 22.8184C164.845 23.0273 165.106 23.1317 165.416 23.1317C165.725 23.1317 165.986 23.0273 166.198 22.8184C166.426 22.6095 166.541 22.3525 166.541 22.0472V15.2028C166.541 14.3352 166.361 13.5399 166.003 12.8168C165.66 12.0939 165.154 11.5235 164.486 11.1058C163.834 10.688 163.059 10.4792 162.162 10.4792C161.184 10.4792 160.336 10.6799 159.619 11.0817C158.963 11.4485 158.349 11.9291 157.776 12.5237C157.72 12.5802 157.667 12.6377 157.613 12.6964V6.40623C157.613 6.10096 157.499 5.84389 157.271 5.63502C157.059 5.41009 156.798 5.29762 156.488 5.29762C156.178 5.29762 155.917 5.41009 155.705 5.63502C155.493 5.84389 155.387 6.10096 155.387 6.40623V22.0472C155.387 22.3525 155.493 22.6095 155.705 22.8184C155.917 23.0273 156.178 23.1317 156.488 23.1317C156.798 23.1317 157.059 23.0273 157.271 22.8184Z" fill="#30424F"/>
</g>
</svg>
