<svg width="132" height="37" viewBox="0 0 132 37" fill="none" xmlns="http://www.w3.org/2000/svg">
<g opacity="0.6">
<path opacity="0.6" d="M33.938 28.4569V9.58276H46.3956V12.36H37.4272V17.5368H45.5779V20.2331H37.4272V25.6797H46.3956V28.4569H33.938Z" fill="#30424F"/>
<path opacity="0.6" d="M48.495 28.4568V15.0831H51.5753L51.8752 16.8897C52.3113 16.2425 52.8838 15.7302 53.5926 15.3527C54.3194 14.9572 55.1554 14.7595 56.1004 14.7595C58.1903 14.7595 59.6715 15.5594 60.5438 17.1593C61.0344 16.4222 61.6886 15.8381 62.5064 15.4067C63.3424 14.9752 64.2511 14.7595 65.2324 14.7595C66.9952 14.7595 68.3491 15.2808 69.2941 16.3234C70.2391 17.366 70.7116 18.8939 70.7116 20.9071V28.4568H67.2223V21.2307C67.2223 20.0803 66.9952 19.1995 66.5409 18.5883C66.1047 17.9771 65.4232 17.6715 64.4964 17.6715C63.5514 17.6715 62.7882 18.0131 62.2066 18.6962C61.6432 19.3792 61.3615 20.3319 61.3615 21.5542V28.4568H57.8723V21.2307C57.8723 20.0803 57.6451 19.1995 57.1908 18.5883C56.7365 17.9771 56.0369 17.6715 55.0918 17.6715C54.165 17.6715 53.4108 18.0131 52.8292 18.6962C52.2659 19.3792 51.9842 20.3319 51.9842 21.5542V28.4568H48.495Z" fill="#30424F"/>
<path opacity="0.6" d="M79.1703 28.7804C77.8073 28.7804 76.5988 28.4928 75.5448 27.9175C74.4907 27.3423 73.6638 26.5334 73.0641 25.4909C72.4644 24.4483 72.1645 23.2439 72.1645 21.8778C72.1645 20.4937 72.4553 19.2624 73.0368 18.1838C73.6366 17.1053 74.4544 16.2695 75.4902 15.6763C76.5443 15.0651 77.78 14.7595 79.1975 14.7595C80.5243 14.7595 81.6966 15.0472 82.7143 15.6223C83.7321 16.1976 84.5221 16.9885 85.0852 17.9951C85.6673 18.9837 85.9583 20.0892 85.9583 21.3116C85.9583 21.5093 85.9484 21.716 85.9304 21.9317C85.9304 22.1474 85.9213 22.3721 85.9032 22.6058H75.6265C75.6992 23.6484 76.0627 24.4662 76.7169 25.0594C77.3893 25.6526 78.198 25.9492 79.143 25.9492C79.8518 25.9492 80.4421 25.7965 80.9148 25.4909C81.4056 25.1673 81.769 24.7539 82.0049 24.2505H85.5489C85.2949 25.0954 84.8674 25.8684 84.2681 26.5693C83.6861 27.2525 82.9593 27.7917 82.0871 28.1872C81.233 28.5826 80.2604 28.7804 79.1703 28.7804ZM79.1975 17.5637C78.3434 17.5637 77.5892 17.8063 76.935 18.2917C76.2808 18.7591 75.8628 19.4781 75.6811 20.4488H82.4143C82.36 19.5679 82.0328 18.867 81.4327 18.3457C80.8334 17.8244 80.0878 17.5637 79.1975 17.5637Z" fill="#30424F"/>
<path opacity="0.6" d="M87.4693 28.4568V15.0831H90.8793L90.904 17.5907C91.3948 16.7278 92.0574 16.0448 92.8934 15.5415C93.7476 15.0202 94.7472 14.7595 95.8924 14.7595V18.3995H94.9108C94.1479 18.3995 93.4664 18.5164 92.8663 18.7501C92.267 18.9837 91.7943 19.3882 91.449 19.9634C91.1218 20.5386 90.9582 21.3385 90.9582 22.3632V28.4568H87.4693Z" fill="#30424F"/>
<path opacity="0.6" d="M101.818 28.7804C100.655 28.7804 99.7003 28.6006 98.9555 28.2411C98.2107 27.8636 97.6558 27.3693 97.2924 26.7581C96.9291 26.147 96.7474 25.4729 96.7474 24.7359C96.7474 23.4956 97.2382 22.4889 98.2197 21.716C99.2005 20.9431 100.673 20.5566 102.636 20.5566H106.071V20.233C106.071 19.3163 105.807 18.6422 105.28 18.2109C104.753 17.7794 104.098 17.5637 103.317 17.5637C102.608 17.5637 101.991 17.7344 101.464 18.076C100.937 18.3995 100.61 18.8849 100.482 19.532H97.0746C97.1658 18.5613 97.4922 17.7165 98.0561 16.9975C98.6374 16.2784 99.383 15.7302 100.291 15.3527C101.2 14.9572 102.218 14.7595 103.345 14.7595C105.271 14.7595 106.788 15.2359 107.896 16.1886C109.005 17.1413 109.56 18.4895 109.56 20.233V28.4568H106.589L106.261 26.2997C105.861 27.0187 105.298 27.6119 104.571 28.0793C103.863 28.5466 102.944 28.7804 101.818 28.7804ZM102.608 26.084C103.608 26.084 104.38 25.7605 104.925 25.1133C105.489 24.4663 105.843 23.6663 105.988 22.7137H103.017C102.09 22.7137 101.427 22.8844 101.027 23.226C100.628 23.5495 100.428 23.954 100.428 24.4393C100.428 24.9606 100.628 25.365 101.027 25.6526C101.427 25.9403 101.954 26.084 102.608 26.084Z" fill="#30424F"/>
<path opacity="0.6" d="M111.769 28.4569V12.5388C111.769 10.6084 113.33 9.04346 115.257 9.04346V28.4569H111.769Z" fill="#30424F"/>
<path opacity="0.6" d="M123.615 28.7805C122.342 28.7805 121.207 28.4749 120.207 27.8637C119.208 27.2526 118.418 26.4167 117.836 25.3562C117.254 24.2956 116.963 23.0913 116.963 21.7431C116.963 20.395 117.254 19.1996 117.836 18.157C118.418 17.0965 119.208 16.2696 120.207 15.6764C121.207 15.0653 122.342 14.7597 123.615 14.7597C124.633 14.7597 125.523 14.9484 126.286 15.3259C127.049 15.7034 127.668 16.2337 128.14 16.9167V12.5388C128.14 10.6084 129.702 9.04346 131.629 9.04346V28.4569H128.522L128.14 26.5425C127.704 27.1357 127.122 27.657 126.395 28.1064C125.686 28.5558 124.76 28.7805 123.615 28.7805ZM124.351 25.7606C125.478 25.7606 126.395 25.3922 127.104 24.6551C127.83 23.9002 128.195 22.9385 128.195 21.7701C128.195 20.6017 127.83 19.6489 127.104 18.912C126.395 18.157 125.478 17.7795 124.351 17.7795C123.242 17.7795 122.324 18.1481 121.597 18.885C120.871 19.622 120.507 20.5747 120.507 21.7431C120.507 22.9115 120.871 23.8732 121.597 24.6282C122.324 25.3831 123.242 25.7606 124.351 25.7606Z" fill="#30424F"/>
<path opacity="0.6" d="M18.7969 0.824698L18.744 0.602724L15.8081 0.043457L0.0482788 22.8453L9.22801 36.46L11.5217 36.897L25.0492 27.6078L18.7969 0.824698ZM22.5567 26.2148L18.327 26.9629L18.126 6.11195L22.5567 26.2148ZM6.36419 26.9914L9.20524 33.3479L3.42296 24.8772L6.36419 26.9914ZM8.45969 25.4835L16.3876 5.00385L16.2582 26.9691L8.45969 25.4835ZM15.2507 28.8961L10.9442 33.6792L8.69086 27.6465L15.2507 28.8961ZM21.5147 28.3236L12.784 34.0296L17.8126 29.1723L21.5147 28.3236ZM14.3644 5.3954L6.54185 24.6944L2.90439 22.4476L14.3644 5.3954Z" fill="#30424F"/>
<path opacity="0.6" fill-rule="evenodd" clip-rule="evenodd" d="M15.7897 0L18.7756 0.568803L18.8344 0.815533L25.0929 27.625L11.5297 36.9387L9.20393 36.4956L0 22.845L15.7897 0ZM15.8252 0.0868741L0.0951728 22.8455L9.25071 36.4244L11.5123 36.8552L25.0042 27.5906L18.7581 0.833823L18.711 0.636605L15.8252 0.0868741ZM8.51272 25.4537L16.2185 26.9216L16.3463 5.21739L8.51272 25.4537ZM16.3502 4.9896L16.4261 5.00406L16.2965 27.0166L8.40536 25.5134L16.3502 4.9896ZM18.086 6.11232L18.1637 6.10345L22.6033 26.2464L18.2875 27.0097L18.086 6.11232ZM18.1682 6.48917L18.3652 26.9161L22.5089 26.1831L18.1682 6.48917ZM2.95912 22.4356L6.52229 24.6365L14.1849 5.73187L2.95912 22.4356ZM14.3311 5.3734L14.4001 5.41018L6.56011 24.7523L2.84828 22.4596L14.3311 5.3734ZM17.8312 29.2081L13.1087 33.77L21.3082 28.4111L17.8312 29.2081ZM21.5053 28.2852L21.5356 28.3565L12.8048 34.0626L12.7561 34.0013L17.7924 29.1363L21.5053 28.2852ZM3.38985 24.8994L3.44517 24.8452L6.39503 26.9656L9.24043 33.3318L9.17212 33.3701L3.38985 24.8994ZM3.58062 25.0394L8.98962 32.9633L6.33198 27.0171L3.58062 25.0394ZM8.62888 27.5948L15.3259 28.8705L10.9294 33.7536L8.62888 27.5948ZM8.75138 27.6982L10.9577 33.6047L15.1741 28.9217L8.75138 27.6982Z" fill="#30424F"/>
</g>
</svg>
